<svg width="24" height="24" viewBox="0 0 24 24" fill="none" xmlns="http://www.w3.org/2000/svg">
<path d="M10 4H14C18.42 4 22 7.58 22 12C22 16.42 18.42 20 14 20H10C5.58 20 2 16.42 2 12C2 7.58 5.58 4 10 4Z" stroke="#414B5A" stroke-width="1.5" stroke-linecap="round" stroke-linejoin="round"/>
<path d="M14 16C15.0609 16 16.0783 15.5786 16.8284 14.8284C17.5786 14.0783 18 13.0609 18 12C18 10.9391 17.5786 9.92172 16.8284 9.17157C16.0783 8.42143 15.0609 8 14 8C12.9391 8 11.9217 8.42143 11.1716 9.17157C10.4214 9.92172 10 10.9391 10 12C10 13.0609 10.4214 14.0783 11.1716 14.8284C11.9217 15.5786 12.9391 16 14 16V16Z" stroke="#414B5A" stroke-width="1.5" stroke-linecap="round" stroke-linejoin="round"/>
</svg>
